<svg xmlns="http://www.w3.org/2000/svg" width="30" height="30" viewBox="0 0 30 30" fill="none">
<circle cx="15" cy="15" r="15" fill="#DCDDDE"/>
<circle cx="25" cy="5" r="4.5" fill="#FB2D2D" stroke="white"/>
<path d="M15 11.7566V13.6991" stroke="#020B18" stroke-miterlimit="10" stroke-linecap="round"/>
<path d="M15.0116 9.16663C12.8649 9.16663 11.1266 10.905 11.1266 13.0516V14.2766C11.1266 14.6733 10.9633 15.2683 10.7591 15.6066L10.0183 16.8433C9.56327 17.6075 9.87827 18.4591 10.7183 18.7391C13.5066 19.6666 16.5224 19.6666 19.3108 18.7391C20.0983 18.4766 20.4366 17.555 20.0108 16.8433L19.2699 15.6066C19.0658 15.2683 18.9024 14.6675 18.9024 14.2766V13.0516C18.8966 10.9166 17.1466 9.16663 15.0116 9.16663Z" stroke="#020B18" stroke-miterlimit="10" stroke-linecap="round"/>
<path d="M16.9425 18.9784C16.9425 20.0459 16.0675 20.9209 15 20.9209C14.4692 20.9209 13.9792 20.6992 13.6292 20.3492C13.2792 19.9992 13.0575 19.5092 13.0575 18.9784" stroke="#020B18" stroke-miterlimit="10"/>
</svg>