<svg xmlns="http://www.w3.org/2000/svg" width="18" height="18" viewBox="0 0 18 18" fill="none">
<path d="M1.5 16.5H16.5" stroke="#333A45" stroke-width="1.5" stroke-miterlimit="10" stroke-linecap="round" stroke-linejoin="round"/>
<path d="M11.2575 16.4924L2.25751 16.5074L2.25 5.3024C2.25 4.7999 2.50501 4.33487 2.91751 4.05737L5.91751 2.05488C6.42001 1.71738 7.07999 1.71738 7.58249 2.05488L10.5825 4.05737C11.0025 4.33487 11.25 4.7999 11.25 5.3024L11.2575 16.4924Z" stroke="#333A45" stroke-width="1.5" stroke-miterlimit="10" stroke-linecap="round" stroke-linejoin="round"/>
<path d="M14.985 16.5075V13.5" stroke="#333A45" stroke-width="1.5" stroke-miterlimit="10" stroke-linecap="round" stroke-linejoin="round"/>
<path d="M15 9C14.175 9 13.5 9.675 13.5 10.5V12C13.5 12.825 14.175 13.5 15 13.5C15.825 13.5 16.5 12.825 16.5 12V10.5C16.5 9.675 15.825 9 15 9Z" stroke="#333A45" stroke-width="1.5" stroke-miterlimit="10" stroke-linecap="round" stroke-linejoin="round"/>
<path d="M2.25 10.5H11.25" stroke="#333A45" stroke-width="1.5" stroke-miterlimit="10" stroke-linecap="round" stroke-linejoin="round"/>
<path d="M6.75 16.5V13.6875" stroke="#333A45" stroke-width="1.5" stroke-miterlimit="10" stroke-linecap="round" stroke-linejoin="round"/>
<path d="M6.75 7.875C7.37132 7.875 7.875 7.37132 7.875 6.75C7.875 6.12868 7.37132 5.625 6.75 5.625C6.12868 5.625 5.625 6.12868 5.625 6.75C5.625 7.37132 6.12868 7.875 6.75 7.875Z" stroke="#333A45" stroke-width="1.5" stroke-miterlimit="10" stroke-linecap="round" stroke-linejoin="round"/>
</svg>