<svg xmlns="http://www.w3.org/2000/svg" width="20" height="21" viewBox="0 0 20 21" fill="none">
<path d="M5.5833 15.5001H3.45831C2.26665 15.5001 1.66663 14.9001 1.66663 13.7084V3.95843C1.66663 2.76677 2.26665 2.16675 3.45831 2.16675H7.04164C8.2333 2.16675 8.83327 2.76677 8.83327 3.95843V5.50008" stroke="white" stroke-width="1.5" stroke-miterlimit="10" stroke-linecap="round" stroke-linejoin="round"/>
<path d="M14.4749 7.51665V16.8167C14.4749 18.1583 13.8083 18.8333 12.4666 18.8333H7.5999C6.25824 18.8333 5.58325 18.1583 5.58325 16.8167V7.51665C5.58325 6.17499 6.25824 5.5 7.5999 5.5H12.4666C13.8083 5.5 14.4749 6.17499 14.4749 7.51665Z" stroke="white" stroke-width="1.5" stroke-miterlimit="10" stroke-linecap="round" stroke-linejoin="round"/>
<path d="M11.1667 5.50008V3.95843C11.1667 2.76677 11.7667 2.16675 12.9584 2.16675H16.5417C17.7334 2.16675 18.3334 2.76677 18.3334 3.95843V13.7084C18.3334 14.9001 17.7334 15.5001 16.5417 15.5001H14.4751" stroke="white" stroke-width="1.5" stroke-miterlimit="10" stroke-linecap="round" stroke-linejoin="round"/>
<path d="M8.33337 9.66675H11.6667" stroke="white" stroke-width="1.5" stroke-miterlimit="10" stroke-linecap="round" stroke-linejoin="round"/>
<path d="M8.33337 12.1667H11.6667" stroke="white" stroke-width="1.5" stroke-miterlimit="10" stroke-linecap="round" stroke-linejoin="round"/>
<path d="M10 18.8333V16.3333" stroke="white" stroke-width="1.5" stroke-miterlimit="10" stroke-linecap="round" stroke-linejoin="round"/>
</svg>