<svg xmlns="http://www.w3.org/2000/svg" width="14" height="14" viewBox="0 0 14 14" fill="none">
<path d="M9.33334 1.16675H4.66667C2.33334 1.16675 1.16667 2.33341 1.16667 4.66675V9.33342C1.16667 11.6667 2.33334 12.8334 4.66667 12.8334H9.33334C11.6667 12.8334 12.8333 11.6667 12.8333 9.33342V4.66675C12.8333 2.33341 11.6667 1.16675 9.33334 1.16675Z" stroke="#333A45" stroke-linecap="round" stroke-linejoin="round"/>
<path d="M7.53014 4.57367L4.50264 7.60117C4.38598 7.71783 4.27515 7.94533 4.25181 8.10867L4.08848 9.26367C4.03015 9.68367 4.32181 9.97533 4.74181 9.917L5.8968 9.75367C6.06013 9.73033 6.28765 9.6195 6.40431 9.50283L9.43182 6.47533C9.95098 5.95617 10.2018 5.3495 9.43182 4.5795C8.66182 3.80367 8.05514 4.04867 7.53014 4.57367Z" stroke="#333A45" stroke-miterlimit="10" stroke-linecap="round" stroke-linejoin="round"/>
<path d="M7.09889 5.00562C7.35556 5.92145 8.07306 6.64478 8.99473 6.90145" stroke="#333A45" stroke-miterlimit="10" stroke-linecap="round" stroke-linejoin="round"/>
</svg>