<svg xmlns="http://www.w3.org/2000/svg" width="16" height="16" viewBox="0 0 16 16" fill="none">
<path d="M6.99331 1.48667L3.66665 2.73333C2.89998 3.02 2.27332 3.92665 2.27332 4.74665V9.69998C2.27332 10.4866 2.79332 11.52 3.42666 11.9933L6.29331 14.1333C7.23331 14.84 8.77997 14.84 9.71997 14.1333L12.5866 11.9933C13.22 11.52 13.74 10.4866 13.74 9.69998V4.74665C13.74 3.92665 13.1133 3.02 12.3466 2.73333L9.01998 1.48667C8.45331 1.28 7.54664 1.28 6.99331 1.48667Z" stroke="#292D32" stroke-linecap="round" stroke-linejoin="round"/>
<path d="M8.00002 7.27979C7.97335 7.27979 7.94002 7.27979 7.91335 7.27979C7.28668 7.25979 6.78668 6.73978 6.78668 6.10645C6.78668 5.45978 7.31336 4.93311 7.96002 4.93311C8.60669 4.93311 9.13336 5.45978 9.13336 6.10645C9.1267 6.74645 8.62669 7.25979 8.00002 7.27979Z" stroke="#292D32" stroke-linecap="round" stroke-linejoin="round"/>
<path d="M6.67336 9.14649C6.03336 9.57316 6.03336 10.2732 6.67336 10.6998C7.40003 11.1865 8.59336 11.1865 9.32003 10.6998C9.96003 10.2732 9.96003 9.57316 9.32003 9.14649C8.60003 8.65983 7.40669 8.65983 6.67336 9.14649Z" stroke="#292D32" stroke-linecap="round" stroke-linejoin="round"/>
</svg>